<?xml version="1.0" encoding="UTF-8" standalone="no"?>
<svg
   xmlns:dc="http://purl.org/dc/elements/1.1/"
   xmlns:cc="http://creativecommons.org/ns#"
   xmlns:rdf="http://www.w3.org/1999/02/22-rdf-syntax-ns#"
   xmlns:svg="http://www.w3.org/2000/svg"
   xmlns="http://www.w3.org/2000/svg"
   id="svg841"
   version="1.1"
   height="680.93701"
   width="1155.6614">
  <metadata
     id="metadata845">
    <rdf:RDF>
      <cc:Work
         rdf:about="">
        <dc:format>image/svg+xml</dc:format>
        <dc:type
           rdf:resource="http://purl.org/dc/dcmitype/StillImage" />
        <dc:title></dc:title>
      </cc:Work>
    </rdf:RDF>
  </metadata>
  <desc
     id="desc815">C:\Users\7PUTO\Desktop\PENDRIVE\sirenbox.dxf - scale = 1.000000, origin = (0.000000, 0.000000), method = file</desc>
  <defs
     id="defs829">
    <marker
       style="overflow:visible"
       refY="0"
       refX="0"
       orient="auto"
       id="DistanceX">
      <path
         id="path817"
         style="stroke:#000000;stroke-width:0.5"
         d="M 3,-3 -3,3 M 0,-5 V 5" />
    </marker>
    <pattern
       y="0"
       x="0"
       width="8"
       patternUnits="userSpaceOnUse"
       id="Hatch"
       height="8">
      <path
         id="path820"
         stroke-width="0.25"
         stroke="#000000"
         linecap="square"
         d="M8 4 l-4,4" />
      <path
         id="path822"
         stroke-width="0.25"
         stroke="#000000"
         linecap="square"
         d="M6 2 l-4,4" />
      <path
         id="path824"
         stroke-width="0.25"
         stroke="#000000"
         linecap="square"
         d="M4 0 l-4,4" />
    </pattern>
    <symbol
       id="*MODEL_SPACE" />
    <symbol
       id="*PAPER_SPACE" />
  </defs>
  <g
     transform="translate(0.311024,-441.8937)"
     id="g839">
    <path
       id="path831"
       style="fill:none;stroke:#ff0000"
       d="m 0.188976,857.76378 v 75.59055 H 22.866142 V 1046.7402 H 0.188976 v 75.5905 h 94.488189 v -22.6772 H 208.06299 v 22.6772 h 113.38583 v -22.6772 h 113.38583 v 22.6772 h 113.38582 v -22.6772 H 661.6063 v 22.6772 h 94.48819 v -75.5905 H 733.41732 V 933.35433 h 22.67717 V 857.76378 H 661.6063 v 22.67717 H 548.22047 V 857.76378 H 434.83465 v 22.67717 H 321.44882 V 857.76378 H 208.06299 v 22.67717 H 94.677165 v -22.67717 z" />
    <path
       id="path833"
       style="fill:none;stroke:#ff0000"
       d="m 22.866142,442.3937 v 75.59055 H 0.188976 v 113.38584 h 22.677166 v 75.59055 H 132.47244 v -22.67716 h 113.38583 v 22.67716 h 113.38582 -3.77953 v -75.59055 h 22.67716 V 517.98425 H 355.46456 V 442.3937 H 245.85827 v 22.67717 H 132.47244 V 442.3937 H 19.086614 Z" />
    <path
       id="path835"
       style="fill:none;stroke:#ff0000"
       d="m 421.62205,465.07087 v 109.60629 h -22.67717 v 113.38583 h 22.67717 v 113.38583 -3.77953 h 71.81102 v 22.67717 H 606.8189 v -22.67717 h 113.38582 v 22.67717 H 833.59055 V 797.66929 H 946.9764 v 22.67717 h 113.3858 v -22.67717 h 71.811 v -109.6063 h 22.6772 V 574.67716 h -22.6772 v -113.38582 3.77953 h -71.811 V 442.3937 H 946.9764 v 22.67717 H 833.59055 V 442.3937 H 720.20472 v 22.67717 H 606.8189 V 442.3937 H 493.43307 v 22.67717 z" />
    <path
       id="path837"
       style="fill:none;stroke:#ff0000"
       d="m 799.5748,857.76378 v 75.59055 h -22.67716 v 113.38587 h 22.67716 v 75.5905 h 109.6063 v -22.6772 h 113.3858 v 22.6772 h 113.3859 -3.7796 v -75.5905 h 22.6772 V 933.35433 h -22.6772 v -75.59055 h -109.6063 v 22.67717 H 909.1811 V 857.76378 H 795.79528 Z" />
  </g>
</svg>
