<?xml version="1.0" encoding="UTF-8" standalone="no"?>
<svg
   xmlns:dc="http://purl.org/dc/elements/1.1/"
   xmlns:cc="http://creativecommons.org/ns#"
   xmlns:rdf="http://www.w3.org/1999/02/22-rdf-syntax-ns#"
   xmlns:svg="http://www.w3.org/2000/svg"
   xmlns="http://www.w3.org/2000/svg"
   id="svg1836"
   version="1.1"
   height="653.34692"
   width="981.78772">
  <metadata
     id="metadata1840">
    <rdf:RDF>
      <cc:Work
         rdf:about="">
        <dc:format>image/svg+xml</dc:format>
        <dc:type
           rdf:resource="http://purl.org/dc/dcmitype/StillImage" />
        <dc:title></dc:title>
      </cc:Work>
    </rdf:RDF>
  </metadata>
  <desc
     id="desc1552">C:\Users\7PUTO\Desktop\PENDRIVE\SuporteFilamentoFlip.dxf - scale = 1.000000, origin = (0.000000, 0.000000), method = file</desc>
  <defs
     id="defs1566">
    <marker
       style="overflow:visible"
       refY="0"
       refX="0"
       orient="auto"
       id="DistanceX">
      <path
         id="path1554"
         style="stroke:#000000;stroke-width:0.5"
         d="M 3,-3 -3,3 M 0,-5 V 5" />
    </marker>
    <pattern
       y="0"
       x="0"
       width="8"
       patternUnits="userSpaceOnUse"
       id="Hatch"
       height="8">
      <path
         id="path1557"
         stroke-width="0.25"
         stroke="#000000"
         linecap="square"
         d="M8 4 l-4,4" />
      <path
         id="path1559"
         stroke-width="0.25"
         stroke="#000000"
         linecap="square"
         d="M6 2 l-4,4" />
      <path
         id="path1561"
         stroke-width="0.25"
         stroke="#000000"
         linecap="square"
         d="M4 0 l-4,4" />
    </pattern>
    <symbol
       id="*MODEL_SPACE" />
    <symbol
       id="*PAPER_SPACE" />
  </defs>
  <g
     transform="translate(-5.247512,-469.17318)"
     id="g1834">
    <path
       id="path1568"
       style="fill:none;stroke:#000000"
       d="m 317.73531,496.73933 c -2.0448,-0.0192 -5.2896,0.2496 -6.7008,-1.536" />
    <path
       id="path1570"
       style="fill:none;stroke:#000000"
       d="m 311.03451,495.20333 c -1.4784,-1.872 -1.0272,-15.97122 -0.9792,-18.78402" />
    <path
       id="path1572"
       style="fill:none;stroke:#000000"
       d="m 310.05531,476.41931 c 0.0288,-1.5264 -0.0672,-3.792 0.9504,-5.0496" />
    <path
       id="path1574"
       style="fill:none;stroke:#000000"
       d="m 311.00571,471.36971 c 1.6416,-2.0352 6.2496,-1.6704 8.6496,-1.6704" />
    <path
       id="path1576"
       style="fill:none;stroke:#000000"
       d="m 407.97541,469.69931 c 1.872,0.0384 4.4448,-0.096 5.74081,1.536" />
    <path
       id="path1578"
       style="fill:none;stroke:#000000"
       d="m 413.71622,471.23531 c 1.20001,1.5264 0.97921,5.1936 0.97921,7.104" />
    <path
       id="path1582"
       style="fill:none;stroke:#000000"
       d="m 496.83313,1022.1416 c 1.2672,2.9376 4.7136,5.5008 7.1424,7.5936" />
    <path
       id="path1584"
       style="fill:none;stroke:#000000"
       d="m 503.97553,1029.7352 c 7.3536,6.336 8.42882,8.7456 18.24002,8.7648" />
    <path
       id="path1586"
       style="fill:none;stroke:#000000"
       d="m 319.65531,469.69931 h 72.00008 16.32002" />
    <path
       id="path1588"
       style="fill:none;stroke:#000000"
       d="m 351.33535,495.77933 c -6.13441,1.7376 -26.07362,1.008 -33.60004,0.96" />
    <path
       id="path1590"
       style="fill:none;stroke:#000000"
       d="m 414.69543,478.33931 v 48.48006 l 4.5408,30.72004 13.44002,79.6801 23.84642,143.04016 16.65602,101.76012 20.31362,121.92021 3.34082,18.2016" />
    <path
       id="path1592"
       style="fill:none;stroke:#000000"
       d="m 312.93531,594.29785 c -15.74402,4.22402 -30.86404,15.94562 -38.41924,30.44164" />
    <path
       id="path1594"
       style="fill:none;stroke:#000000"
       d="m 274.51607,624.73949 c -20.40003,39.15844 2.8512,88.76168 48.01926,93.2833" />
    <path
       id="path1596"
       style="fill:none;stroke:#000000"
       d="m 322.53533,718.02279 c 5.3472,0.528 7.7664,1.2192 13.44,0.51841" />
    <path
       id="path1598"
       style="fill:none;stroke:#000000"
       d="m 335.97533,718.5412 c 9.49441,-1.16161 20.90882,-4.03201 28.80004,-9.60961" />
    <path
       id="path1600"
       style="fill:none;stroke:#000000"
       d="m 364.77537,708.93159 c 12.90241,-9.12002 23.76002,-22.38723 27.33123,-38.11206" />
    <path
       id="path1602"
       style="fill:none;stroke:#000000"
       d="m 392.88419,664.09953 c 3.71521,-30.16324 -10.8384,-56.64966 -39.62884,-67.60327" />
    <path
       id="path1604"
       style="fill:none;stroke:#000000"
       d="m 353.25535,596.49626 c -9.8688,-3.76321 -18.19202,-5.10721 -28.80002,-4.12801" />
    <path
       id="path1606"
       style="fill:none;stroke:#000000"
       d="m 522.21555,1038.5 h 40.32006 v 24.96 h -42.24006 v 33.6001 h 42.24006 v 24.96 h -76.8001 l -7.30562,-0.9792 -5.9424,-8.6208 -12.67202,-22.08 -59.78886,-104.64017 -177.1874,-310.08039 -54.30728,-95.0401 -17.56801,-30.72004 -8.90881,-17.28002 h 210.24024 l -0.96,-36.80005" />
    <path
       id="path1608"
       style="fill:none;stroke:#000000"
       d="m 341.21695,749.96203 c -23.43364,24.01922 -18.69122,63.28328 10.1184,80.73609" />
    <path
       id="path1610"
       style="fill:none;stroke:#000000"
       d="m 351.33535,830.69812 c 7.9296,4.80001 15.82082,6.55681 24.96003,7.07521" />
    <path
       id="path1612"
       style="fill:none;stroke:#000000"
       d="m 376.29538,837.77333 c 3.5136,0.2016 5.30881,-0.3264 8.64001,-0.7296" />
    <path
       id="path1614"
       style="fill:none;stroke:#000000"
       d="m 384.93539,837.04373 c 23.18402,-2.8032 40.59844,-21.36962 43.34405,-44.30405" />
    <path
       id="path1616"
       style="fill:none;stroke:#000000"
       d="m 428.27944,792.73968 c 0.3456,-2.81281 0.8448,-4.76161 0.72,-7.68001" />
    <path
       id="path1618"
       style="fill:none;stroke:#000000"
       d="m 428.99944,785.05967 c -0.9696,-21.93602 -13.26721,-38.46724 -33.50405,-46.46405" />
    <path
       id="path1620"
       style="fill:none;stroke:#000000"
       d="m 395.49539,738.59562 c -6.33599,-2.50561 -14.3136,-3.79201 -21.12001,-3.18721" />
    <path
       id="path1622"
       style="fill:none;stroke:#000000"
       d="m 374.37538,735.40841 c -13.21922,1.91041 -23.36643,4.512 -33.15843,14.55362" />
    <path
       id="path1624"
       style="fill:none;stroke:#000000"
       d="m 392.1066,670.81953 0.77759,-6.72" />
    <path
       id="path1626"
       style="fill:none;stroke:#000000"
       d="m 392.77859,875.33817 c -21.53282,23.15524 -4.2432,60.79688 27.67684,59.44328" />
    <path
       id="path1628"
       style="fill:none;stroke:#000000"
       d="m 420.45543,934.78145 c 30.93124,-1.3056 44.91846,-39.73444 22.75203,-60.96008" />
    <path
       id="path1630"
       style="fill:none;stroke:#000000"
       d="m 443.20746,873.82137 c -6.72961,-6.4416 -15.53282,-9.264 -24.67203,-9.60961" />
    <path
       id="path1632"
       style="fill:none;stroke:#000000"
       d="m 418.53543,864.21176 c -10.57922,0.91201 -18.24002,3.04321 -25.75684,11.12641" />
    <path
       id="path1634"
       style="fill:none;stroke:#000000"
       d="m 250.54795,1094.954 c 2.0448,0.019 5.2896,-0.2496 6.70081,1.536" />
    <path
       id="path1636"
       style="fill:none;stroke:#000000"
       d="m 257.24876,1096.49 c 1.4784,1.872 1.0272,15.9712 0.9792,18.784" />
    <path
       id="path1638"
       style="fill:none;stroke:#000000"
       d="m 258.22796,1115.274 c -0.0288,1.5264 0.0672,3.792 -0.95041,5.0496" />
    <path
       id="path1640"
       style="fill:none;stroke:#000000"
       d="m 257.27755,1120.3236 c -1.6416,2.0352 -6.2496,1.6704 -8.64961,1.6704" />
    <path
       id="path1642"
       style="fill:none;stroke:#000000"
       d="m 160.30784,1121.994 c -1.872,-0.038 -4.4448,0.096 -5.7408,-1.536" />
    <path
       id="path1644"
       style="fill:none;stroke:#000000"
       d="m 154.56704,1120.458 c -1.2,-1.5264 -0.9792,-5.1936 -0.9792,-7.104" />
    <path
       id="path1646"
       style="fill:none;stroke:#000000"
       d="m 324.45533,592.36825 -11.52002,1.9296" />
    <path
       id="path1648"
       style="fill:none;stroke:#000000"
       d="m 71.450086,569.55177 c -1.267203,-2.9376 -4.713615,-5.5008 -7.142419,-7.5936" />
    <path
       id="path1650"
       style="fill:none;stroke:#000000"
       d="m 64.307667,561.95817 c -7.353615,-6.33602 -8.42883,-8.74562 -18.240045,-8.76482" />
    <path
       id="path1652"
       style="fill:none;stroke:#000000"
       d="M 248.62794,1121.994 H 176.62786 160.30784" />
    <path
       id="path1654"
       style="fill:none;stroke:#000000"
       d="m 216.9479,1095.914 c 6.13442,-1.7376 26.07364,-1.008 33.60005,-0.96" />
    <path
       id="path1656"
       style="fill:none;stroke:#000000"
       d="m 153.58784,1113.354 v -48.4801 l -4.54082,-30.72 L 135.607,954.47381 111.76058,811.43365 95.104547,709.67353 74.790886,587.75339 l -3.3408,-18.20162" />
    <path
       id="path1658"
       style="fill:none;stroke:#000000"
       d="m 255.34796,997.39545 c 15.74401,-4.22401 30.86403,-15.94561 38.41924,-30.44162" />
    <path
       id="path1660"
       style="fill:none;stroke:#000000"
       d="m 293.7672,966.95383 c 20.40002,-39.15844 -2.8512,-88.76169 -48.01926,-93.2833" />
    <path
       id="path1662"
       style="fill:none;stroke:#000000"
       d="m 245.74794,873.67053 c -5.3472,-0.528 -7.7664,-1.2192 -13.44002,-0.5184" />
    <path
       id="path1664"
       style="fill:none;stroke:#000000"
       d="m 232.30792,873.15213 c -9.4944,1.1616 -20.90882,4.032 -28.80003,9.60962" />
    <path
       id="path1666"
       style="fill:none;stroke:#000000"
       d="m 203.50789,882.76175 c -12.90241,9.12 -23.76003,22.38722 -27.33123,38.11204" />
    <path
       id="path1668"
       style="fill:none;stroke:#000000"
       d="m 175.39906,927.59379 c -3.7152,30.16324 10.83841,56.64965 39.62884,67.60325" />
    <path
       id="path1670"
       style="fill:none;stroke:#000000"
       d="m 215.0279,995.19704 c 9.86882,3.76322 18.19202,5.10726 28.80004,4.12802" />
    <path
       id="path1672"
       style="fill:none;stroke:#000000"
       d="M 46.067622,553.19335 H 5.747512 v -24.96002 h 42.24011 V 494.63329 H 5.747512 v -24.96002 h 76.800205 l 7.305615,0.9792 5.942415,8.6208 12.672033,22.08004 59.78886,104.6401 177.18742,310.08038 54.30726,95.04011 17.56802,30.72 8.90882,17.28 H 215.9879 l 0.96,36.8001" />
    <path
       id="path1674"
       style="fill:none;stroke:#000000"
       d="m 227.06632,841.73129 c 23.43363,-24.01922 18.69122,-63.28328 -10.11842,-80.7361" />
    <path
       id="path1676"
       style="fill:none;stroke:#000000"
       d="m 216.9479,760.99519 c -7.9296,-4.8 -15.82082,-6.5568 -24.96002,-7.0752" />
    <path
       id="path1678"
       style="fill:none;stroke:#000000"
       d="m 191.98788,753.91999 c -3.51361,-0.2016 -5.30881,0.3264 -8.64002,0.7296" />
    <path
       id="path1680"
       style="fill:none;stroke:#000000"
       d="m 183.34786,754.64959 c -23.18402,2.8032 -40.59844,21.36962 -43.34404,44.30406" />
    <path
       id="path1682"
       style="fill:none;stroke:#000000"
       d="m 140.00382,798.95365 c -0.3456,2.8128 -0.8448,4.7616 -0.72,7.68" />
    <path
       id="path1684"
       style="fill:none;stroke:#000000"
       d="m 139.28382,806.63365 c 0.9696,21.93603 13.26722,38.46725 33.50404,46.46406" />
    <path
       id="path1686"
       style="fill:none;stroke:#000000"
       d="m 172.78786,853.09771 c 6.336,2.5056 14.31361,3.792 21.12002,3.1872" />
    <path
       id="path1688"
       style="fill:none;stroke:#000000"
       d="m 193.90788,856.28491 c 13.21922,-1.9104 23.36642,-4.512 33.15844,-14.55362" />
    <path
       id="path1690"
       style="fill:none;stroke:#000000"
       d="m 176.17666,920.87379 -0.7776,6.72" />
    <path
       id="path1692"
       style="fill:none;stroke:#000000"
       d="m 175.50466,716.35515 c 21.53282,-23.15524 4.2432,-60.79688 -27.67684,-59.44328" />
    <path
       id="path1694"
       style="fill:none;stroke:#000000"
       d="m 147.82782,656.91187 c -30.93124,1.3056 -44.91846,39.73444 -22.75202,60.96008" />
    <path
       id="path1696"
       style="fill:none;stroke:#000000"
       d="m 125.0758,717.87195 c 6.7296,6.4416 15.53282,9.264 24.67202,9.6096" />
    <path
       id="path1698"
       style="fill:none;stroke:#000000"
       d="m 149.74782,727.48155 c 10.57922,-0.912 18.24002,-3.0432 25.75684,-11.1264" />
    <path
       id="path1700"
       style="fill:none;stroke:#000000"
       d="m 741.73513,496.73933 c -2.0448,-0.0192 -5.28962,0.2496 -6.70082,-1.536" />
    <path
       id="path1702"
       style="fill:none;stroke:#000000"
       d="m 735.03431,495.20333 c -1.4784,-1.872 -1.0272,-15.97122 -0.9792,-18.78402" />
    <path
       id="path1704"
       style="fill:none;stroke:#000000"
       d="m 734.05511,476.41931 c 0.0288,-1.5264 -0.0672,-3.792 0.9504,-5.0496" />
    <path
       id="path1706"
       style="fill:none;stroke:#000000"
       d="m 735.00551,471.36971 c 1.64162,-2.0352 6.24962,-1.6704 8.64962,-1.6704" />
    <path
       id="path1708"
       style="fill:none;stroke:#000000"
       d="m 831.97523,469.69931 c 1.872,0.0384 4.44482,-0.096 5.74082,1.536" />
    <path
       id="path1710"
       style="fill:none;stroke:#000000"
       d="m 837.71605,471.23531 c 1.2,1.5264 0.9792,5.1936 0.9792,7.104" />
    <path
       id="path1712"
       style="fill:none;stroke:#000000"
       d="m 243.82794,999.32506 11.52002,-1.92961" />
    <path
       id="path1714"
       style="fill:none;stroke:#000000"
       d="m 920.83294,1022.1416 c 1.2672,2.9376 4.71361,5.5008 7.14241,7.5936" />
    <path
       id="path1716"
       style="fill:none;stroke:#000000"
       d="m 927.97535,1029.7352 c 7.35361,6.336 8.42881,8.7456 18.24002,8.7648" />
    <path
       id="path1718"
       style="fill:none;stroke:#000000"
       d="m 743.65513,469.69931 h 72.00008 16.32002" />
    <path
       id="path1720"
       style="fill:none;stroke:#000000"
       d="m 775.33517,495.77933 c -6.1344,1.7376 -26.07364,1.008 -33.60004,0.96" />
    <path
       id="path1722"
       style="fill:none;stroke:#000000"
       d="m 838.69525,478.33931 v 48.48006 l 4.5408,30.72004 13.44002,79.6801 23.84642,143.04016 16.65602,101.76012 20.31364,121.92021 3.34079,18.2016" />
    <path
       id="path1724"
       style="fill:none;stroke:#000000"
       d="m 736.93513,594.29785 c -15.74402,4.22402 -30.86404,15.94562 -38.41924,30.44164" />
    <path
       id="path1726"
       style="fill:none;stroke:#000000"
       d="m 698.51589,624.73949 c -20.40003,39.15844 2.8512,88.76168 48.01924,93.2833" />
    <path
       id="path1728"
       style="fill:none;stroke:#000000"
       d="m 746.53513,718.02279 c 5.3472,0.528 7.76642,1.2192 13.44002,0.51841" />
    <path
       id="path1730"
       style="fill:none;stroke:#000000"
       d="m 759.97515,718.5412 c 9.49442,-1.16161 20.90882,-4.03201 28.80004,-9.60961" />
    <path
       id="path1732"
       style="fill:none;stroke:#000000"
       d="m 788.77519,708.93159 c 12.9024,-9.12002 23.76002,-22.38723 27.33122,-38.11206" />
    <path
       id="path1734"
       style="fill:none;stroke:#000000"
       d="m 816.88401,664.09953 c 3.71522,-30.16324 -10.8384,-56.64966 -39.62884,-67.60327" />
    <path
       id="path1736"
       style="fill:none;stroke:#000000"
       d="m 777.25517,596.49626 c -9.86882,-3.76321 -18.19202,-5.10721 -28.80004,-4.12801" />
    <path
       id="path1738"
       style="fill:none;stroke:#000000"
       d="m 946.21537,1038.5 h 40.31988 v 24.96 h -42.23988 v 33.6001 h 42.23988 v 24.96 h -76.79992 l -7.3056,-0.9792 -5.94242,-8.6208 -12.67201,-22.08 -59.78887,-104.64017 -177.1874,-310.08039 -54.30728,-95.0401 -17.56802,-30.72004 -8.9088,-17.28002 h 210.24024 l -0.96,-36.80005" />
    <path
       id="path1740"
       style="fill:none;stroke:#000000"
       d="m 765.21675,749.96203 c -23.43362,24.01922 -18.69122,63.28328 10.11842,80.73609" />
    <path
       id="path1742"
       style="fill:none;stroke:#000000"
       d="m 775.33517,830.69812 c 7.9296,4.80001 15.82082,6.55681 24.96002,7.07521" />
    <path
       id="path1744"
       style="fill:none;stroke:#000000"
       d="m 800.29519,837.77333 c 3.51361,0.2016 5.30882,-0.3264 8.64002,-0.7296" />
    <path
       id="path1746"
       style="fill:none;stroke:#000000"
       d="m 808.93521,837.04373 c 23.18402,-2.8032 40.59844,-21.36962 43.34406,-44.30405" />
    <path
       id="path1748"
       style="fill:none;stroke:#000000"
       d="m 852.27927,792.73968 c 0.3456,-2.81281 0.8448,-4.76161 0.72,-7.68001" />
    <path
       id="path1750"
       style="fill:none;stroke:#000000"
       d="m 852.99927,785.05967 c -0.9696,-21.93602 -13.26722,-38.46724 -33.50404,-46.46405" />
    <path
       id="path1752"
       style="fill:none;stroke:#000000"
       d="m 819.49523,738.59562 c -6.33602,-2.50561 -14.31362,-3.79201 -21.12004,-3.18721" />
    <path
       id="path1754"
       style="fill:none;stroke:#000000"
       d="m 798.37519,735.40841 c -13.21922,1.91041 -23.36642,4.512 -33.15844,14.55362" />
    <path
       id="path1756"
       style="fill:none;stroke:#000000"
       d="m 816.10641,670.81953 0.7776,-6.72" />
    <path
       id="path1758"
       style="fill:none;stroke:#000000"
       d="m 816.77841,875.33817 c -21.53282,23.15524 -4.2432,60.79688 27.67684,59.44328" />
    <path
       id="path1760"
       style="fill:none;stroke:#000000"
       d="m 844.45525,934.78145 c 30.93124,-1.3056 44.91846,-39.73444 22.75203,-60.96008" />
    <path
       id="path1762"
       style="fill:none;stroke:#000000"
       d="m 867.20728,873.82137 c -6.72961,-6.4416 -15.53281,-9.264 -24.67203,-9.60961" />
    <path
       id="path1764"
       style="fill:none;stroke:#000000"
       d="m 842.53525,864.21176 c -10.57922,0.91201 -18.24002,3.04321 -25.75684,11.12641" />
    <path
       id="path1766"
       style="fill:none;stroke:#000000"
       d="m 674.54777,1094.954 c 2.0448,0.019 5.2896,-0.2496 6.7008,1.536" />
    <path
       id="path1768"
       style="fill:none;stroke:#000000"
       d="m 681.24857,1096.49 c 1.4784,1.872 1.0272,15.9712 0.9792,18.784" />
    <path
       id="path1770"
       style="fill:none;stroke:#000000"
       d="m 682.22777,1115.274 c -0.0288,1.5264 0.0672,3.792 -0.9504,5.0496" />
    <path
       id="path1772"
       style="fill:none;stroke:#000000"
       d="m 681.27737,1120.3236 c -1.6416,2.0352 -6.2496,1.6704 -8.6496,1.6704" />
    <path
       id="path1774"
       style="fill:none;stroke:#000000"
       d="m 584.30765,1121.994 c -1.872,-0.038 -4.4448,0.096 -5.74079,-1.536" />
    <path
       id="path1776"
       style="fill:none;stroke:#000000"
       d="m 578.56686,1120.458 c -1.20001,-1.5264 -0.97921,-5.1936 -0.97921,-7.104" />
    <path
       id="path1778"
       style="fill:none;stroke:#000000"
       d="m 748.45513,592.36825 -11.52,1.9296" />
    <path
       id="path1780"
       style="fill:none;stroke:#000000"
       d="m 495.44995,569.55177 c -1.2672,-2.9376 -4.71361,-5.5008 -7.14241,-7.5936" />
    <path
       id="path1782"
       style="fill:none;stroke:#000000"
       d="m 488.30754,561.95817 c -7.35361,-6.33602 -8.42881,-8.74562 -18.24002,-8.76482" />
    <path
       id="path1784"
       style="fill:none;stroke:#000000"
       d="m 672.62777,1121.994 h -72.0001 -16.32002" />
    <path
       id="path1786"
       style="fill:none;stroke:#000000"
       d="m 640.94773,1095.914 c 6.1344,-1.7376 26.07362,-1.008 33.60004,-0.96" />
    <path
       id="path1788"
       style="fill:none;stroke:#000000"
       d="m 577.58765,1113.354 v -48.4801 l -4.54081,-30.72 L 559.60683,954.47381 535.7604,811.43365 519.10437,709.67353 498.79076,587.75339 495.44995,569.55177" />
    <path
       id="path1790"
       style="fill:none;stroke:#000000"
       d="m 679.34777,997.39545 c 15.74402,-4.22401 30.86403,-15.94561 38.41924,-30.44162" />
    <path
       id="path1792"
       style="fill:none;stroke:#000000"
       d="m 717.76701,966.95383 c 20.40003,-39.15844 -2.85121,-88.76169 -48.01926,-93.2833" />
    <path
       id="path1794"
       style="fill:none;stroke:#000000"
       d="m 669.74775,873.67053 c -5.3472,-0.528 -7.7664,-1.2192 -13.44,-0.5184" />
    <path
       id="path1796"
       style="fill:none;stroke:#000000"
       d="m 656.30775,873.15213 c -9.49442,1.1616 -20.90884,4.032 -28.80004,9.60962" />
    <path
       id="path1798"
       style="fill:none;stroke:#000000"
       d="m 627.50771,882.76175 c -12.90242,9.12 -23.76003,22.38722 -27.33124,38.11204" />
    <path
       id="path1800"
       style="fill:none;stroke:#000000"
       d="m 599.39887,927.59379 c -3.7152,30.16324 10.83842,56.64965 39.62886,67.60325" />
    <path
       id="path1802"
       style="fill:none;stroke:#000000"
       d="m 639.02773,995.19704 c 9.8688,3.76322 18.19202,5.10726 28.80002,4.12802" />
    <path
       id="path1804"
       style="fill:none;stroke:#000000"
       d="m 470.06752,553.19335 h -40.32004 v -24.96002 h 42.24004 v -33.60004 h -42.24004 v -24.96002 h 76.80008 l 7.30561,0.9792 5.9424,8.6208 12.67202,22.08004 59.78888,104.6401 177.1874,310.08038 54.30726,95.04011 17.56802,30.72 8.90882,17.28 H 639.98773 l 0.96,36.8001" />
    <path
       id="path1806"
       style="fill:none;stroke:#000000"
       d="m 651.06613,841.73129 c 23.43364,-24.01922 18.69122,-63.28328 -10.1184,-80.7361" />
    <path
       id="path1808"
       style="fill:none;stroke:#000000"
       d="m 640.94773,760.99519 c -7.92962,-4.8 -15.82082,-6.5568 -24.96004,-7.0752" />
    <path
       id="path1810"
       style="fill:none;stroke:#000000"
       d="m 615.98769,753.91999 c -3.5136,-0.2016 -5.3088,0.3264 -8.64,0.7296" />
    <path
       id="path1812"
       style="fill:none;stroke:#000000"
       d="m 607.34769,754.64959 c -23.18404,2.8032 -40.59845,21.36962 -43.34405,44.30406" />
    <path
       id="path1814"
       style="fill:none;stroke:#000000"
       d="m 564.00364,798.95365 c -0.3456,2.8128 -0.84481,4.7616 -0.72001,7.68" />
    <path
       id="path1816"
       style="fill:none;stroke:#000000"
       d="m 563.28363,806.63365 c 0.96961,21.93603 13.26722,38.46725 33.50404,46.46406" />
    <path
       id="path1818"
       style="fill:none;stroke:#000000"
       d="m 596.78767,853.09771 c 6.33601,2.5056 14.31362,3.792 21.12003,3.1872" />
    <path
       id="path1820"
       style="fill:none;stroke:#000000"
       d="m 617.9077,856.28491 c 13.21922,-1.9104 23.36643,-4.512 33.15843,-14.55362" />
    <path
       id="path1822"
       style="fill:none;stroke:#000000"
       d="m 600.17647,920.87379 -0.7776,6.72" />
    <path
       id="path1824"
       style="fill:none;stroke:#000000"
       d="m 599.50447,716.35515 c 21.53283,-23.15524 4.24321,-60.79688 -27.67683,-59.44328" />
    <path
       id="path1826"
       style="fill:none;stroke:#000000"
       d="m 571.82764,656.91187 c -30.93123,1.3056 -44.91845,39.73444 -22.75202,60.96008" />
    <path
       id="path1828"
       style="fill:none;stroke:#000000"
       d="m 549.07562,717.87195 c 6.7296,6.4416 15.53282,9.264 24.67203,9.6096" />
    <path
       id="path1830"
       style="fill:none;stroke:#000000"
       d="m 573.74765,727.48155 c 10.57921,-0.912 18.24002,-3.0432 25.75682,-11.1264" />
    <path
       id="path1832"
       style="fill:none;stroke:#000000"
       d="m 667.82775,999.32506 11.52002,-1.92961" />
  </g>
</svg>
